<svg xmlns="http://www.w3.org/2000/svg" viewBox="0 0 400 100" width="400" height="100">
  <!-- Flower -->
  <g transform="translate(50, 50)">
    <!-- petals -->
    <ellipse cx="0" cy="-30" rx="9" ry="17" fill="#FF8FAB" opacity="0.9"/>
    <ellipse cx="0" cy="-30" rx="9" ry="17" fill="#FF8FAB" opacity="0.9" transform="rotate(51.4)"/>
    <ellipse cx="0" cy="-30" rx="9" ry="17" fill="#FFB347" opacity="0.9" transform="rotate(102.8)"/>
    <ellipse cx="0" cy="-30" rx="9" ry="17" fill="#FFB347" opacity="0.9" transform="rotate(154.2)"/>
    <ellipse cx="0" cy="-30" rx="9" ry="17" fill="#FF8FAB" opacity="0.9" transform="rotate(205.7)"/>
    <ellipse cx="0" cy="-30" rx="9" ry="17" fill="#FFB347" opacity="0.9" transform="rotate(257.1)"/>
    <ellipse cx="0" cy="-30" rx="9" ry="17" fill="#FF8FAB" opacity="0.9" transform="rotate(308.5)"/>
    <!-- center -->
    <circle cx="0" cy="0" r="20" fill="#FFE066"/>
    <circle cx="0" cy="0" r="17" fill="#FFD700"/>
    <!-- face -->
    <circle cx="-6" cy="-5" r="3" fill="#fff"/>
    <circle cx="6" cy="-5" r="3" fill="#fff"/>
    <circle cx="-6" cy="-5" r="1.5" fill="#c97d00"/>
    <circle cx="6" cy="-5" r="1.5" fill="#c97d00"/>
    <circle cx="-10" cy="2" r="4" fill="#FF8FAB" opacity="0.45"/>
    <circle cx="10" cy="2" r="4" fill="#FF8FAB" opacity="0.45"/>
    <path d="M-6 2 Q0 8 6 2" fill="none" stroke="#c97d00" stroke-width="1.8" stroke-linecap="round"/>
  </g>
  <!-- stars -->
  <text x="14" y="22" font-family="sans-serif" font-size="13" fill="#FFE066">★</text>
  <text x="82" y="16" font-family="sans-serif" font-size="9" fill="#5B9CF6">★</text>
  <text x="92" y="30" font-family="sans-serif" font-size="7" fill="#FF8FAB">★</text>
  <!-- divider -->
  <line x1="110" y1="18" x2="110" y2="82" stroke="#FFD0E8" stroke-width="1.5"/>
  <!-- text -->
  <text x="126" y="52" font-family="Arial, sans-serif" font-size="30" font-weight="700" fill="#3A6FD8">Малятко</text>
</svg>
